<?xml version="1.0" encoding="UTF-8" standalone="no"?>
<!DOCTYPE svg PUBLIC "-//W3C//DTD SVG 1.1//EN"
 "http://www.w3.org/Graphics/SVG/1.1/DTD/svg11.dtd">
<!-- Generated by graphviz version 5.0.0 (20220707.1540)
 -->
<!-- Title: dependencies Pages: 1 -->
<svg width="612pt" height="174pt"
 viewBox="0.00 0.00 612.00 173.80" xmlns="http://www.w3.org/2000/svg" xmlns:xlink="http://www.w3.org/1999/xlink">
<g id="graph0" class="graph" transform="scale(1 1) rotate(0) translate(4 169.8)">
<title>dependencies</title>
<polygon fill="white" stroke="transparent" points="-4,4 -4,-169.8 608,-169.8 608,4 -4,4"/>
<text text-anchor="middle" x="302" y="-8.2" font-family="sans-serif" font-size="14.00">dependencies</text>
<g id="clust1" class="cluster">
<title>cluster_AppModule</title>
<polygon fill="none" stroke="black" stroke-dasharray="1,5" points="8,-32.8 8,-157.8 596,-157.8 596,-32.8 8,-32.8"/>
</g>
<g id="clust3" class="cluster">
<title>cluster_AppModule_imports</title>
<polygon fill="none" stroke="black" points="154,-40.8 154,-92.8 588,-92.8 588,-40.8 154,-40.8"/>
</g>
<g id="clust6" class="cluster">
<title>cluster_AppModule_providers</title>
<polygon fill="none" stroke="black" points="16,-40.8 16,-92.8 146,-92.8 146,-40.8 16,-40.8"/>
</g>
<!-- AuthModule -->
<g id="node1" class="node">
<title>AuthModule</title>
<polygon fill="#8dd3c7" stroke="black" points="579.55,-84.8 576.55,-88.8 555.55,-88.8 552.55,-84.8 492.45,-84.8 492.45,-48.8 579.55,-48.8 579.55,-84.8"/>
<text text-anchor="middle" x="536" y="-62.6" font-family="Times,serif" font-size="14.00">AuthModule</text>
</g>
<!-- AppModule -->
<g id="node5" class="node">
<title>AppModule</title>
<polygon fill="#8dd3c7" stroke="black" points="356.66,-149.8 353.66,-153.8 332.66,-153.8 329.66,-149.8 273.34,-149.8 273.34,-113.8 356.66,-113.8 356.66,-149.8"/>
<text text-anchor="middle" x="315" y="-127.6" font-family="Times,serif" font-size="14.00">AppModule</text>
</g>
<!-- AuthModule&#45;&gt;AppModule -->
<g id="edge1" class="edge">
<title>AuthModule&#45;&gt;AppModule</title>
<path fill="none" stroke="black" d="M536,-85.08C536,-106.12 536,-137.8 536,-137.8 536,-137.8 366.83,-137.8 366.83,-137.8"/>
<polygon fill="black" stroke="black" points="366.83,-134.3 356.83,-137.8 366.83,-141.3 366.83,-134.3"/>
</g>
<!-- EventModule -->
<g id="node2" class="node">
<title>EventModule</title>
<polygon fill="#8dd3c7" stroke="black" points="474.21,-84.8 471.21,-88.8 450.21,-88.8 447.21,-84.8 381.79,-84.8 381.79,-48.8 474.21,-48.8 474.21,-84.8"/>
<text text-anchor="middle" x="428" y="-62.6" font-family="Times,serif" font-size="14.00">EventModule</text>
</g>
<!-- EventModule&#45;&gt;AppModule -->
<g id="edge2" class="edge">
<title>EventModule&#45;&gt;AppModule</title>
<path fill="none" stroke="black" d="M428,-84.82C428,-102.17 428,-125.8 428,-125.8 428,-125.8 366.76,-125.8 366.76,-125.8"/>
<polygon fill="black" stroke="black" points="366.76,-122.3 356.76,-125.8 366.76,-129.3 366.76,-122.3"/>
</g>
<!-- GlobalModule -->
<g id="node3" class="node">
<title>GlobalModule</title>
<polygon fill="#8dd3c7" stroke="black" points="363.66,-84.8 360.66,-88.8 339.66,-88.8 336.66,-84.8 266.34,-84.8 266.34,-48.8 363.66,-48.8 363.66,-84.8"/>
<text text-anchor="middle" x="315" y="-62.6" font-family="Times,serif" font-size="14.00">GlobalModule</text>
</g>
<!-- GlobalModule&#45;&gt;AppModule -->
<g id="edge3" class="edge">
<title>GlobalModule&#45;&gt;AppModule</title>
<path fill="none" stroke="black" d="M315,-84.91C315,-84.91 315,-103.79 315,-103.79"/>
<polygon fill="black" stroke="black" points="311.5,-103.79 315,-113.79 318.5,-103.79 311.5,-103.79"/>
</g>
<!-- UserModule -->
<g id="node4" class="node">
<title>UserModule</title>
<polygon fill="#8dd3c7" stroke="black" points="247.99,-84.8 244.99,-88.8 223.99,-88.8 220.99,-84.8 162.01,-84.8 162.01,-48.8 247.99,-48.8 247.99,-84.8"/>
<text text-anchor="middle" x="205" y="-62.6" font-family="Times,serif" font-size="14.00">UserModule</text>
</g>
<!-- UserModule&#45;&gt;AppModule -->
<g id="edge4" class="edge">
<title>UserModule&#45;&gt;AppModule</title>
<path fill="none" stroke="black" d="M205,-84.82C205,-102.17 205,-125.8 205,-125.8 205,-125.8 263.1,-125.8 263.1,-125.8"/>
<polygon fill="black" stroke="black" points="263.1,-129.3 273.1,-125.8 263.1,-122.3 263.1,-129.3"/>
</g>
<!-- AppService -->
<g id="node6" class="node">
<title>AppService</title>
<ellipse fill="#fdb462" stroke="black" cx="81" cy="-66.8" rx="56.75" ry="18"/>
<text text-anchor="middle" x="81" y="-62.6" font-family="Times,serif" font-size="14.00">AppService</text>
</g>
<!-- AppService&#45;&gt;AppModule -->
<g id="edge5" class="edge">
<title>AppService&#45;&gt;AppModule</title>
<path fill="none" stroke="black" d="M81,-85.08C81,-106.12 81,-137.8 81,-137.8 81,-137.8 263.17,-137.8 263.17,-137.8"/>
<polygon fill="black" stroke="black" points="263.17,-141.3 273.17,-137.8 263.17,-134.3 263.17,-141.3"/>
</g>
</g>
</svg>
