<?xml version="1.0" encoding="UTF-8" standalone="no"?>
<!DOCTYPE svg PUBLIC "-//W3C//DTD SVG 1.1//EN"
 "http://www.w3.org/Graphics/SVG/1.1/DTD/svg11.dtd">
<!-- Generated by graphviz version 5.0.0 (20220707.1540)
 -->
<!-- Title: dependencies Pages: 1 -->
<svg width="182pt" height="247pt"
 viewBox="0.00 0.00 182.00 246.80" xmlns="http://www.w3.org/2000/svg" xmlns:xlink="http://www.w3.org/1999/xlink">
<g id="graph0" class="graph" transform="scale(1 1) rotate(0) translate(4 242.8)">
<title>dependencies</title>
<polygon fill="white" stroke="transparent" points="-4,4 -4,-242.8 178,-242.8 178,4 -4,4"/>
<text text-anchor="middle" x="87" y="-8.2" font-family="sans-serif" font-size="14.00">dependencies</text>
<g id="clust1" class="cluster">
<title>cluster_EventModule</title>
<polygon fill="none" stroke="black" stroke-dasharray="1,5" points="8,-32.8 8,-230.8 166,-230.8 166,-32.8 8,-32.8"/>
</g>
<g id="clust4" class="cluster">
<title>cluster_EventModule_exports</title>
<polygon fill="none" stroke="black" points="32,-170.8 32,-222.8 142,-222.8 142,-170.8 32,-170.8"/>
</g>
<g id="clust6" class="cluster">
<title>cluster_EventModule_providers</title>
<polygon fill="none" stroke="black" points="16,-40.8 16,-92.8 158,-92.8 158,-40.8 16,-40.8"/>
</g>
<!-- EventService  -->
<g id="node1" class="node">
<title>EventService </title>
<polygon fill="#fb8072" stroke="black" points="134.13,-214.8 39.87,-214.8 39.87,-178.8 134.13,-178.8 134.13,-214.8"/>
<text text-anchor="middle" x="87" y="-192.6" font-family="Times,serif" font-size="14.00">EventService </text>
</g>
<!-- EventModule -->
<g id="node2" class="node">
<title>EventModule</title>
<polygon fill="#8dd3c7" stroke="black" points="133.21,-149.8 130.21,-153.8 109.21,-153.8 106.21,-149.8 40.79,-149.8 40.79,-113.8 133.21,-113.8 133.21,-149.8"/>
<text text-anchor="middle" x="87" y="-127.6" font-family="Times,serif" font-size="14.00">EventModule</text>
</g>
<!-- EventModule&#45;&gt;EventService  -->
<g id="edge1" class="edge">
<title>EventModule&#45;&gt;EventService </title>
<path fill="none" stroke="black" stroke-dasharray="5,2" d="M87,-149.91C87,-149.91 87,-168.79 87,-168.79"/>
<polygon fill="black" stroke="black" points="83.5,-168.79 87,-178.79 90.5,-168.79 83.5,-168.79"/>
</g>
<!-- EventService -->
<g id="node3" class="node">
<title>EventService</title>
<ellipse fill="#fdb462" stroke="black" cx="87" cy="-66.8" rx="62.54" ry="18"/>
<text text-anchor="middle" x="87" y="-62.6" font-family="Times,serif" font-size="14.00">EventService</text>
</g>
<!-- EventService&#45;&gt;EventModule -->
<g id="edge2" class="edge">
<title>EventService&#45;&gt;EventModule</title>
<path fill="none" stroke="black" d="M87,-84.91C87,-84.91 87,-103.79 87,-103.79"/>
<polygon fill="black" stroke="black" points="83.5,-103.79 87,-113.79 90.5,-103.79 83.5,-103.79"/>
</g>
</g>
</svg>
